# xmcd
#
# Track frame offsets: 
#        150
#        22900
#        50170
#        73782
#        99587
#        116937
#        141127
#        154105
#        162025
#        173050
#        185450
#        192597
#        201800
#        207905
#        222855
#
# Disc length: 3283 seconds
#
# Revision: 3
# Processed by: cddbd v1.5.2PL0 Copyright (c) Steve Scherf et al.
# Submitted via: ExactAudioCopyFreeDBPlugin 1.0
#
DISCID=de0cd10f
DTITLE=Ann Peebles - Fill This World with Love
DYEAR=1996
DGENRE=Soul
TTITLE0=I'm Yours
TTITLE1=Fill This World with Love
TTITLE2=When I'm Over You
TTITLE3=Stand Up
TTITLE4=Friends
TTITLE5=I Don't Think That I Can Last Tonight
TTITLE6=Fired Up
TTITLE7=Walk Away
TTITLE8=Give Me Some Credit Where It's Due
TTITLE9=I'd Rather Leave While I'm in Love
TTITLE10=I Pity the Fool
TTITLE11=Bip Bam Thank You Ma'am
TTITLE12=Ninety-Nine Pounds
TTITLE13=One Way Street
TTITLE14=I Wouldn't Take Nothing for One Moment I've Spent with You
EXTD=
EXTT0=
EXTT1=
EXTT2=
EXTT3=
EXTT4=
EXTT5=
EXTT6=
EXTT7=
EXTT8=
EXTT9=
EXTT10=
EXTT11=
EXTT12=
EXTT13=
EXTT14=
PLAYORDER=
